<svg width="24" height="24" viewBox="0 0 24 24" fill="none" xmlns="http://www.w3.org/2000/svg">
<path d="M12.2102 4C10.7852 4 9.64355 5.15 9.64355 6.56667V11.7C9.64355 13.125 10.7936 14.2667 12.2102 14.2667C13.6269 14.2667 14.7769 13.1167 14.7769 11.7V6.56667C14.7769 5.14167 13.6269 4 12.2102 4Z" fill="#161618"/>
<path d="M17.0934 12.5833C16.8684 12.5333 16.6434 12.675 16.5934 12.9C16.1434 14.9416 14.3017 16.425 12.21 16.425C10.1184 16.425 8.2767 14.9416 7.8267 12.9C7.7767 12.675 7.56004 12.5333 7.3267 12.5833C7.1017 12.6333 6.96004 12.8583 7.01004 13.0833C7.51004 15.3666 9.49337 17.05 11.8017 17.225C11.8017 17.2416 11.7934 17.2583 11.7934 17.275V20.275C11.7934 20.5083 11.9767 20.6916 12.21 20.6916C12.4434 20.6916 12.6267 20.5083 12.6267 20.275V17.275C12.6267 17.275 12.6267 17.2416 12.6184 17.225C14.9267 17.0416 16.91 15.3666 17.41 13.0833C17.46 12.8583 17.3184 12.6333 17.0934 12.5833V12.5833Z" fill="#161618"/>
<path d="M17.0017 12.575C16.81 12.575 16.635 12.7083 16.5934 12.9C16.1434 14.9416 14.3017 16.425 12.21 16.425C10.1184 16.425 8.2767 14.9416 7.8267 12.9C7.78504 12.7083 7.61004 12.575 7.41837 12.575C7.38504 12.575 7.36004 12.575 7.3267 12.5833C7.1017 12.6333 6.96004 12.8583 7.01004 13.0833C7.51004 15.3666 9.49337 17.05 11.8017 17.225C11.8017 17.2416 11.7934 17.2583 11.7934 17.275V20.275C11.7934 20.5083 11.9767 20.6916 12.21 20.6916C12.4434 20.6916 12.6267 20.5083 12.6267 20.275V17.275C12.6267 17.275 12.6267 17.2416 12.6184 17.225C14.9267 17.0416 16.91 15.3666 17.41 13.0833C17.46 12.8583 17.3184 12.6333 17.0934 12.5833C17.06 12.5833 17.035 12.575 17.0017 12.575V12.575Z" fill="#161618"/>
</svg>
