<svg width="24" height="24" viewBox="0 0 24 24" fill="none" xmlns="http://www.w3.org/2000/svg">
<path d="M19.9833 19.3833L15.6583 15.075C16.7 13.9 17.3333 12.3583 17.3333 10.6667C17.3333 6.98333 14.35 4 10.6667 4C6.98333 4 4 6.98333 4 10.6667C4 14.35 6.98333 17.3333 10.6667 17.3333C12.3583 17.3333 13.8917 16.7 15.0667 15.6667L19.3917 19.9833C19.475 20.0667 19.5833 20.1083 19.6833 20.1083C19.7833 20.1083 19.9 20.0667 19.975 19.9833C20.1417 19.8167 20.1417 19.5583 19.975 19.3917L19.9833 19.3833ZM4.83333 10.6667C4.83333 7.45 7.45 4.83333 10.6667 4.83333C13.8833 4.83333 16.5 7.45 16.5 10.6667C16.5 13.8833 13.8833 16.5 10.6667 16.5C7.45 16.5 4.83333 13.8833 4.83333 10.6667Z" fill="#161618"/>
</svg>
